<mxfile host="Electron" agent="Mozilla/5.0 (Windows NT 10.0; Win64; x64) AppleWebKit/537.36 (KHTML, like Gecko) draw.io/24.7.5 Chrome/126.0.6478.183 Electron/31.3.0 Safari/537.36" version="24.7.5">
  <diagram id="LEwYRcsTkfbShe3gcOEQ" name="Page-1">
    <mxGraphModel dx="1396" dy="1110" grid="1" gridSize="10" guides="1" tooltips="1" connect="1" arrows="1" fold="1" page="1" pageScale="1" pageWidth="850" pageHeight="1100" math="0" shadow="0">
      <root>
        <mxCell id="0" />
        <mxCell id="1" parent="0" />
        <mxCell id="JldXOKZeadMfTU68lqjX-1" value="Food Item" style="swimlane;fontStyle=0;childLayout=stackLayout;horizontal=1;startSize=26;fillColor=none;horizontalStack=0;resizeParent=1;resizeParentMax=0;resizeLast=0;collapsible=1;marginBottom=0;whiteSpace=wrap;html=1;" vertex="1" parent="1">
          <mxGeometry x="380" y="440" width="140" height="78" as="geometry" />
        </mxCell>
        <mxCell id="JldXOKZeadMfTU68lqjX-2" value="Id" style="text;strokeColor=none;fillColor=none;align=left;verticalAlign=top;spacingLeft=4;spacingRight=4;overflow=hidden;rotatable=0;points=[[0,0.5],[1,0.5]];portConstraint=eastwest;whiteSpace=wrap;html=1;" vertex="1" parent="JldXOKZeadMfTU68lqjX-1">
          <mxGeometry y="26" width="140" height="26" as="geometry" />
        </mxCell>
        <mxCell id="JldXOKZeadMfTU68lqjX-3" value="Name" style="text;strokeColor=none;fillColor=none;align=left;verticalAlign=top;spacingLeft=4;spacingRight=4;overflow=hidden;rotatable=0;points=[[0,0.5],[1,0.5]];portConstraint=eastwest;whiteSpace=wrap;html=1;" vertex="1" parent="JldXOKZeadMfTU68lqjX-1">
          <mxGeometry y="52" width="140" height="26" as="geometry" />
        </mxCell>
        <mxCell id="JldXOKZeadMfTU68lqjX-16" style="edgeStyle=orthogonalEdgeStyle;rounded=0;orthogonalLoop=1;jettySize=auto;html=1;exitX=0.5;exitY=0;exitDx=0;exitDy=0;entryX=0;entryY=0.5;entryDx=0;entryDy=0;" edge="1" parent="1" source="JldXOKZeadMfTU68lqjX-9" target="JldXOKZeadMfTU68lqjX-20">
          <mxGeometry relative="1" as="geometry" />
        </mxCell>
        <mxCell id="JldXOKZeadMfTU68lqjX-27" value="Consists of" style="edgeLabel;html=1;align=center;verticalAlign=middle;resizable=0;points=[];" vertex="1" connectable="0" parent="JldXOKZeadMfTU68lqjX-16">
          <mxGeometry x="0.1824" y="3" relative="1" as="geometry">
            <mxPoint x="-60" y="88" as="offset" />
          </mxGeometry>
        </mxCell>
        <mxCell id="JldXOKZeadMfTU68lqjX-37" value="1" style="edgeLabel;html=1;align=center;verticalAlign=middle;resizable=0;points=[];" vertex="1" connectable="0" parent="JldXOKZeadMfTU68lqjX-16">
          <mxGeometry x="0.9119" relative="1" as="geometry">
            <mxPoint x="-16" y="-5" as="offset" />
          </mxGeometry>
        </mxCell>
        <mxCell id="JldXOKZeadMfTU68lqjX-28" style="edgeStyle=orthogonalEdgeStyle;rounded=0;orthogonalLoop=1;jettySize=auto;html=1;entryX=0;entryY=0.5;entryDx=0;entryDy=0;" edge="1" parent="1" source="JldXOKZeadMfTU68lqjX-9" target="JldXOKZeadMfTU68lqjX-23">
          <mxGeometry relative="1" as="geometry" />
        </mxCell>
        <mxCell id="JldXOKZeadMfTU68lqjX-29" value="Consists of" style="edgeLabel;html=1;align=center;verticalAlign=middle;resizable=0;points=[];" vertex="1" connectable="0" parent="JldXOKZeadMfTU68lqjX-28">
          <mxGeometry x="-0.64" y="-1" relative="1" as="geometry">
            <mxPoint as="offset" />
          </mxGeometry>
        </mxCell>
        <mxCell id="JldXOKZeadMfTU68lqjX-38" value="1" style="edgeLabel;html=1;align=center;verticalAlign=middle;resizable=0;points=[];" vertex="1" connectable="0" parent="JldXOKZeadMfTU68lqjX-28">
          <mxGeometry x="0.92" relative="1" as="geometry">
            <mxPoint x="-8" y="-5" as="offset" />
          </mxGeometry>
        </mxCell>
        <mxCell id="JldXOKZeadMfTU68lqjX-9" value="Nutritional Info" style="swimlane;fontStyle=0;childLayout=stackLayout;horizontal=1;startSize=26;fillColor=none;horizontalStack=0;resizeParent=1;resizeParentMax=0;resizeLast=0;collapsible=1;marginBottom=0;whiteSpace=wrap;html=1;" vertex="1" parent="1">
          <mxGeometry x="640" y="453" width="220" height="52" as="geometry" />
        </mxCell>
        <mxCell id="JldXOKZeadMfTU68lqjX-10" value="Caloric value per 100grams" style="text;strokeColor=none;fillColor=none;align=left;verticalAlign=top;spacingLeft=4;spacingRight=4;overflow=hidden;rotatable=0;points=[[0,0.5],[1,0.5]];portConstraint=eastwest;whiteSpace=wrap;html=1;" vertex="1" parent="JldXOKZeadMfTU68lqjX-9">
          <mxGeometry y="26" width="220" height="26" as="geometry" />
        </mxCell>
        <mxCell id="JldXOKZeadMfTU68lqjX-12" style="edgeStyle=orthogonalEdgeStyle;rounded=0;orthogonalLoop=1;jettySize=auto;html=1;exitX=1;exitY=0.5;exitDx=0;exitDy=0;entryX=0;entryY=0.5;entryDx=0;entryDy=0;" edge="1" parent="1" source="JldXOKZeadMfTU68lqjX-2" target="JldXOKZeadMfTU68lqjX-9">
          <mxGeometry relative="1" as="geometry" />
        </mxCell>
        <mxCell id="JldXOKZeadMfTU68lqjX-13" value="Has" style="edgeLabel;html=1;align=center;verticalAlign=middle;resizable=0;points=[];" vertex="1" connectable="0" parent="JldXOKZeadMfTU68lqjX-12">
          <mxGeometry x="-0.2143" y="1" relative="1" as="geometry">
            <mxPoint x="10" y="-8" as="offset" />
          </mxGeometry>
        </mxCell>
        <mxCell id="JldXOKZeadMfTU68lqjX-39" value="1" style="edgeLabel;html=1;align=center;verticalAlign=middle;resizable=0;points=[];" vertex="1" connectable="0" parent="JldXOKZeadMfTU68lqjX-12">
          <mxGeometry x="0.7667" y="1" relative="1" as="geometry">
            <mxPoint x="-6" y="-8" as="offset" />
          </mxGeometry>
        </mxCell>
        <mxCell id="JldXOKZeadMfTU68lqjX-14" value="Macronutrients" style="swimlane;fontStyle=0;childLayout=stackLayout;horizontal=1;startSize=26;fillColor=none;horizontalStack=0;resizeParent=1;resizeParentMax=0;resizeLast=0;collapsible=1;marginBottom=0;whiteSpace=wrap;html=1;" vertex="1" parent="1">
          <mxGeometry x="940" y="260" width="220" height="130" as="geometry" />
        </mxCell>
        <mxCell id="JldXOKZeadMfTU68lqjX-15" value="Carbohydrates" style="text;strokeColor=none;fillColor=none;align=left;verticalAlign=top;spacingLeft=4;spacingRight=4;overflow=hidden;rotatable=0;points=[[0,0.5],[1,0.5]];portConstraint=eastwest;whiteSpace=wrap;html=1;" vertex="1" parent="JldXOKZeadMfTU68lqjX-14">
          <mxGeometry y="26" width="220" height="26" as="geometry" />
        </mxCell>
        <mxCell id="JldXOKZeadMfTU68lqjX-20" value="Proteins" style="text;strokeColor=none;fillColor=none;align=left;verticalAlign=top;spacingLeft=4;spacingRight=4;overflow=hidden;rotatable=0;points=[[0,0.5],[1,0.5]];portConstraint=eastwest;whiteSpace=wrap;html=1;" vertex="1" parent="JldXOKZeadMfTU68lqjX-14">
          <mxGeometry y="52" width="220" height="26" as="geometry" />
        </mxCell>
        <mxCell id="JldXOKZeadMfTU68lqjX-19" value="Fats" style="text;strokeColor=none;fillColor=none;align=left;verticalAlign=top;spacingLeft=4;spacingRight=4;overflow=hidden;rotatable=0;points=[[0,0.5],[1,0.5]];portConstraint=eastwest;whiteSpace=wrap;html=1;" vertex="1" parent="JldXOKZeadMfTU68lqjX-14">
          <mxGeometry y="78" width="220" height="26" as="geometry" />
        </mxCell>
        <mxCell id="JldXOKZeadMfTU68lqjX-21" value="Fibre" style="text;strokeColor=none;fillColor=none;align=left;verticalAlign=top;spacingLeft=4;spacingRight=4;overflow=hidden;rotatable=0;points=[[0,0.5],[1,0.5]];portConstraint=eastwest;whiteSpace=wrap;html=1;" vertex="1" parent="JldXOKZeadMfTU68lqjX-14">
          <mxGeometry y="104" width="220" height="26" as="geometry" />
        </mxCell>
        <mxCell id="JldXOKZeadMfTU68lqjX-22" value="Micronutrients" style="swimlane;fontStyle=0;childLayout=stackLayout;horizontal=1;startSize=26;fillColor=none;horizontalStack=0;resizeParent=1;resizeParentMax=0;resizeLast=0;collapsible=1;marginBottom=0;whiteSpace=wrap;html=1;" vertex="1" parent="1">
          <mxGeometry x="940" y="560" width="220" height="78" as="geometry" />
        </mxCell>
        <mxCell id="JldXOKZeadMfTU68lqjX-23" value="Vitamins" style="text;strokeColor=none;fillColor=none;align=left;verticalAlign=top;spacingLeft=4;spacingRight=4;overflow=hidden;rotatable=0;points=[[0,0.5],[1,0.5]];portConstraint=eastwest;whiteSpace=wrap;html=1;" vertex="1" parent="JldXOKZeadMfTU68lqjX-22">
          <mxGeometry y="26" width="220" height="26" as="geometry" />
        </mxCell>
        <mxCell id="JldXOKZeadMfTU68lqjX-24" value="Minerals" style="text;strokeColor=none;fillColor=none;align=left;verticalAlign=top;spacingLeft=4;spacingRight=4;overflow=hidden;rotatable=0;points=[[0,0.5],[1,0.5]];portConstraint=eastwest;whiteSpace=wrap;html=1;" vertex="1" parent="JldXOKZeadMfTU68lqjX-22">
          <mxGeometry y="52" width="220" height="26" as="geometry" />
        </mxCell>
        <mxCell id="JldXOKZeadMfTU68lqjX-34" style="edgeStyle=orthogonalEdgeStyle;rounded=0;orthogonalLoop=1;jettySize=auto;html=1;entryX=0.5;entryY=0;entryDx=0;entryDy=0;" edge="1" parent="1" source="JldXOKZeadMfTU68lqjX-30" target="JldXOKZeadMfTU68lqjX-1">
          <mxGeometry relative="1" as="geometry" />
        </mxCell>
        <mxCell id="JldXOKZeadMfTU68lqjX-35" value="Consists of" style="edgeLabel;html=1;align=center;verticalAlign=middle;resizable=0;points=[];" vertex="1" connectable="0" parent="JldXOKZeadMfTU68lqjX-34">
          <mxGeometry x="-0.2653" y="4" relative="1" as="geometry">
            <mxPoint x="-4" y="24" as="offset" />
          </mxGeometry>
        </mxCell>
        <mxCell id="JldXOKZeadMfTU68lqjX-36" value="1 .. *" style="edgeLabel;html=1;align=center;verticalAlign=middle;resizable=0;points=[];" vertex="1" connectable="0" parent="JldXOKZeadMfTU68lqjX-34">
          <mxGeometry x="0.8571" y="-2" relative="1" as="geometry">
            <mxPoint y="-12" as="offset" />
          </mxGeometry>
        </mxCell>
        <mxCell id="JldXOKZeadMfTU68lqjX-30" value="Meal" style="swimlane;fontStyle=0;childLayout=stackLayout;horizontal=1;startSize=26;fillColor=none;horizontalStack=0;resizeParent=1;resizeParentMax=0;resizeLast=0;collapsible=1;marginBottom=0;whiteSpace=wrap;html=1;" vertex="1" parent="1">
          <mxGeometry x="380" y="220" width="140" height="104" as="geometry" />
        </mxCell>
        <mxCell id="JldXOKZeadMfTU68lqjX-31" value="Id" style="text;strokeColor=none;fillColor=none;align=left;verticalAlign=top;spacingLeft=4;spacingRight=4;overflow=hidden;rotatable=0;points=[[0,0.5],[1,0.5]];portConstraint=eastwest;whiteSpace=wrap;html=1;" vertex="1" parent="JldXOKZeadMfTU68lqjX-30">
          <mxGeometry y="26" width="140" height="26" as="geometry" />
        </mxCell>
        <mxCell id="JldXOKZeadMfTU68lqjX-33" value="Name" style="text;strokeColor=none;fillColor=none;align=left;verticalAlign=top;spacingLeft=4;spacingRight=4;overflow=hidden;rotatable=0;points=[[0,0.5],[1,0.5]];portConstraint=eastwest;whiteSpace=wrap;html=1;" vertex="1" parent="JldXOKZeadMfTU68lqjX-30">
          <mxGeometry y="52" width="140" height="26" as="geometry" />
        </mxCell>
        <mxCell id="JldXOKZeadMfTU68lqjX-32" value="Date" style="text;strokeColor=none;fillColor=none;align=left;verticalAlign=top;spacingLeft=4;spacingRight=4;overflow=hidden;rotatable=0;points=[[0,0.5],[1,0.5]];portConstraint=eastwest;whiteSpace=wrap;html=1;" vertex="1" parent="JldXOKZeadMfTU68lqjX-30">
          <mxGeometry y="78" width="140" height="26" as="geometry" />
        </mxCell>
        <mxCell id="JldXOKZeadMfTU68lqjX-44" style="edgeStyle=orthogonalEdgeStyle;rounded=0;orthogonalLoop=1;jettySize=auto;html=1;entryX=0.5;entryY=0;entryDx=0;entryDy=0;" edge="1" parent="1" source="JldXOKZeadMfTU68lqjX-40" target="JldXOKZeadMfTU68lqjX-30">
          <mxGeometry relative="1" as="geometry" />
        </mxCell>
        <mxCell id="JldXOKZeadMfTU68lqjX-45" value="logs" style="edgeLabel;html=1;align=center;verticalAlign=middle;resizable=0;points=[];" vertex="1" connectable="0" parent="JldXOKZeadMfTU68lqjX-44">
          <mxGeometry x="-0.6257" y="-1" relative="1" as="geometry">
            <mxPoint x="7" y="37" as="offset" />
          </mxGeometry>
        </mxCell>
        <mxCell id="JldXOKZeadMfTU68lqjX-46" value="0 .. *" style="edgeLabel;html=1;align=center;verticalAlign=middle;resizable=0;points=[];" vertex="1" connectable="0" parent="JldXOKZeadMfTU68lqjX-44">
          <mxGeometry x="0.8659" relative="1" as="geometry">
            <mxPoint as="offset" />
          </mxGeometry>
        </mxCell>
        <mxCell id="JldXOKZeadMfTU68lqjX-40" value="User" style="swimlane;fontStyle=0;childLayout=stackLayout;horizontal=1;startSize=26;fillColor=none;horizontalStack=0;resizeParent=1;resizeParentMax=0;resizeLast=0;collapsible=1;marginBottom=0;whiteSpace=wrap;html=1;" vertex="1" parent="1">
          <mxGeometry x="380" y="10" width="140" height="78" as="geometry" />
        </mxCell>
        <mxCell id="JldXOKZeadMfTU68lqjX-41" value="Id" style="text;strokeColor=none;fillColor=none;align=left;verticalAlign=top;spacingLeft=4;spacingRight=4;overflow=hidden;rotatable=0;points=[[0,0.5],[1,0.5]];portConstraint=eastwest;whiteSpace=wrap;html=1;" vertex="1" parent="JldXOKZeadMfTU68lqjX-40">
          <mxGeometry y="26" width="140" height="26" as="geometry" />
        </mxCell>
        <mxCell id="JldXOKZeadMfTU68lqjX-42" value="Details" style="text;strokeColor=none;fillColor=none;align=left;verticalAlign=top;spacingLeft=4;spacingRight=4;overflow=hidden;rotatable=0;points=[[0,0.5],[1,0.5]];portConstraint=eastwest;whiteSpace=wrap;html=1;" vertex="1" parent="JldXOKZeadMfTU68lqjX-40">
          <mxGeometry y="52" width="140" height="26" as="geometry" />
        </mxCell>
        <mxCell id="JldXOKZeadMfTU68lqjX-47" style="edgeStyle=orthogonalEdgeStyle;rounded=0;orthogonalLoop=1;jettySize=auto;html=1;entryX=0;entryY=0.5;entryDx=0;entryDy=0;" edge="1" parent="1" source="JldXOKZeadMfTU68lqjX-41" target="JldXOKZeadMfTU68lqjX-2">
          <mxGeometry relative="1" as="geometry">
            <Array as="points">
              <mxPoint x="290" y="49" />
              <mxPoint x="290" y="479" />
            </Array>
          </mxGeometry>
        </mxCell>
        <mxCell id="JldXOKZeadMfTU68lqjX-49" value="Creates" style="edgeLabel;html=1;align=center;verticalAlign=middle;resizable=0;points=[];" vertex="1" connectable="0" parent="JldXOKZeadMfTU68lqjX-47">
          <mxGeometry x="-0.0295" y="-3" relative="1" as="geometry">
            <mxPoint as="offset" />
          </mxGeometry>
        </mxCell>
        <mxCell id="JldXOKZeadMfTU68lqjX-50" value="0 .. *" style="edgeLabel;html=1;align=center;verticalAlign=middle;resizable=0;points=[];" vertex="1" connectable="0" parent="JldXOKZeadMfTU68lqjX-47">
          <mxGeometry x="0.9311" y="4" relative="1" as="geometry">
            <mxPoint x="-9" y="-5" as="offset" />
          </mxGeometry>
        </mxCell>
      </root>
    </mxGraphModel>
  </diagram>
</mxfile>
